<?xml version="1.0" standalone="no"?><!DOCTYPE svg PUBLIC "-//W3C//DTD SVG 1.1//EN"
        "http://www.w3.org/Graphics/SVG/1.1/DTD/svg11.dtd">
<svg  viewBox="0 0 1024 1024" version="1.1" xmlns="http://www.w3.org/2000/svg"
     xmlns:xlink="http://www.w3.org/1999/xlink" width="200" height="200">
    <path d="M804.2 519.1L661.2 242l29.5-48.1-23.4-5.8-25 42.9H310.4L269 154.8l-13.7 11.8 40.8 75.5-146.2 269.1-85.9-3.1 3.9 23.4h81.5L299 803.9l-30 57.5 35.1-2 19.7-42.8h324.9l30.3 52.6h27.3l-42.5-67.5 146.9-266.4 149.4 2.1v-17.5l-155.9-0.8z m-31.3-0.1l-79.7-0.4-97.8-169.3 50.1-81.7L772.9 519z m-176.9-0.9l-56-78.4 42-68.5 84.8 147.2-70.8-0.3zM525 432H419.6l-32.9-60.6 7.3-11.6h173.1L525 432z m-121 9.8l-57.3 76.4-51.5-1.8 80.3-127.3 28.5 52.7z m-58.9 89.7l53.4 81.6-35.1 67.4-69.2-149h50.9z m65.7 95.6h128.7l34.9 60.7H382.9l27.9-60.7z m138.2-7.7l51.3-87.1 66.7 1-79.6 147.1-38.4-61z m76.2-359.1l-45.5 78H378.3l-5.1 8.2-45.9-84.5 297.9-1.7z m-314.7 8.5l51.6 95.5-93.8 151.1-81.4-2.9 123.6-243.7zM185.3 531.5H267l85.7 169.4-38.5 73.9-128.9-243.3z m152.8 253.8l33.2-72.3H589l41.6 72.3H338.1z m310.1-8.3l-48.1-76.5 94.9-167 84.7 1.2L648.2 777z"
          fill="#1296db" />
</svg>